<svg width="28" height="28" viewBox="0 0 28 28" fill="none" xmlns="http://www.w3.org/2000/svg">
<path d="M7.6675 7.6675H7.68292M7.6675 13.835H7.68292M20.0025 13.835H20.0179M20.0025 7.6675H20.0179M20.0025 20.0025H20.0179M7.6675 20.0025H7.68292M6.434 26.17H21.236C22.9631 26.17 23.8267 26.17 24.4863 25.8339C25.0665 25.5383 25.5383 25.0665 25.8339 24.4863C26.17 23.8267 26.17 22.9631 26.17 21.236V6.434C26.17 4.70695 26.17 3.8434 25.8339 3.18376C25.5383 2.6035 25.0665 2.13175 24.4863 1.83611C23.8267 1.5 22.9631 1.5 21.236 1.5H6.434C4.70695 1.5 3.8434 1.5 3.18376 1.83611C2.6035 2.13175 2.13175 2.6035 1.83611 3.18376C1.5 3.8434 1.5 4.70693 1.5 6.434V21.236C1.5 22.9631 1.5 23.8267 1.83611 24.4863C2.13175 25.0665 2.6035 25.5383 3.18376 25.8339C3.8434 26.17 4.70693 26.17 6.434 26.17Z" stroke="#333333" stroke-width="3" stroke-linecap="round" stroke-linejoin="round"/>
</svg>
