<svg width="28" height="28" viewBox="0 0 28 28" fill="none" xmlns="http://www.w3.org/2000/svg">
<path d="M7.66667 7.66667H7.68208M20 7.66667H20.0154M13.8333 13.8333H13.8488M20 20H20.0154M7.66667 20H7.68208M6.43333 26.1667H21.2333C22.9602 26.1667 23.8236 26.1667 24.4832 25.8306C25.0633 25.535 25.535 25.0633 25.8306 24.4832C26.1667 23.8236 26.1667 22.9602 26.1667 21.2333V6.43333C26.1667 4.70651 26.1667 3.84309 25.8306 3.18353C25.535 2.60336 25.0633 2.13167 24.4832 1.83607C23.8236 1.5 22.9602 1.5 21.2333 1.5H6.43333C4.70651 1.5 3.84309 1.5 3.18353 1.83607C2.60336 2.13167 2.13167 2.60336 1.83607 3.18353C1.5 3.84309 1.5 4.7065 1.5 6.43333V21.2333C1.5 22.9602 1.5 23.8236 1.83607 24.4832C2.13167 25.0633 2.60336 25.535 3.18353 25.8306C3.84309 26.1667 4.7065 26.1667 6.43333 26.1667Z" stroke="#333333" stroke-width="3" stroke-linecap="round" stroke-linejoin="round"/>
</svg>
