<svg width="58" height="63" viewBox="0 0 58 63" fill="none" xmlns="http://www.w3.org/2000/svg">
<g clip-path="url(#clip0_279_1476)">
<path fill-rule="evenodd" clip-rule="evenodd" d="M8.44075 20.9999C8.44123 18.5112 9.03272 16.0649 10.1578 13.8983C11.283 11.7318 12.9035 9.91861 14.8622 8.63477C16.8209 7.35092 19.0512 6.63999 21.3367 6.57098C23.6222 6.50197 25.8853 7.07722 27.9064 8.2409C29.9275 9.40458 31.6378 11.1172 32.8716 13.2125C34.1053 15.3078 34.8205 17.7147 34.9477 20.1995C35.075 22.6844 34.6099 25.1629 33.5977 27.3944C32.5855 29.626 31.0606 31.5349 29.1708 32.9358C33.2404 34.5605 36.7702 37.4737 39.3059 41.3004C41.8416 45.1271 43.2672 49.6922 43.3992 54.4083C43.4063 54.6668 43.3666 54.9244 43.2823 55.1662C43.198 55.408 43.0707 55.6294 42.9078 55.8177C42.5788 56.198 42.1245 56.4204 41.6448 56.4361C41.1651 56.4518 40.6993 56.2594 40.3499 55.9012C40.0006 55.5431 39.7962 55.0486 39.7818 54.5264C39.6382 49.4115 37.6706 44.5584 34.2959 40.9956C30.9212 37.4328 26.4046 35.4403 21.7033 35.4403C17.002 35.4403 12.4855 37.4328 9.11075 40.9956C5.73605 44.5584 3.76841 49.4115 3.6248 54.5264C3.60065 55.0405 3.39251 55.5238 3.04495 55.8729C2.6974 56.2219 2.23808 56.4089 1.76539 56.3938C1.29271 56.3787 0.844258 56.1627 0.51611 55.792C0.187963 55.4214 0.00622081 54.9256 0.00981802 54.4109C0.141374 49.6944 1.56676 45.1287 4.1025 41.3015C6.63824 37.4742 10.1683 34.5607 14.2382 32.9358C12.4505 31.6122 10.9876 29.8324 9.97703 27.7519C8.96648 25.6714 8.43905 23.3533 8.44075 20.9999ZM21.7045 10.4999C19.1461 10.4999 16.6925 11.6062 14.8835 13.5753C13.0744 15.5444 12.0581 18.2151 12.0581 20.9999C12.0581 23.7847 13.0744 26.4554 14.8835 28.4245C16.6925 30.3937 19.1461 31.4999 21.7045 31.4999C24.2629 31.4999 26.7165 30.3937 28.5255 28.4245C30.3346 26.4554 31.3509 23.7847 31.3509 20.9999C31.3509 18.2151 30.3346 15.5444 28.5255 13.5753C26.7165 11.6062 24.2629 10.4999 21.7045 10.4999Z" fill="#333333"/>
<path d="M41.6963 20.9997C41.3394 20.9997 40.9922 21.0259 40.6497 21.0784C40.4106 21.125 40.1653 21.1187 39.9285 21.0599C39.6917 21.0011 39.4682 20.891 39.2714 20.7361C39.0745 20.5812 38.9084 20.3848 38.7828 20.1585C38.6572 19.9322 38.5747 19.6807 38.5404 19.4189C38.506 19.1572 38.5205 18.8906 38.5828 18.6351C38.6452 18.3796 38.7542 18.1403 38.9033 17.9317C39.0525 17.723 39.2387 17.5491 39.4509 17.4205C39.6631 17.2919 39.8969 17.2111 40.1384 17.1829C42.537 16.8055 44.9827 17.3068 47.0907 18.6081C49.1988 19.9094 50.8495 21.9367 51.7831 24.371C52.7166 26.8054 52.8801 29.5085 52.2476 32.055C51.6152 34.6015 50.2228 36.8468 48.2896 38.4376C51.1314 39.8226 53.5443 42.0732 55.2371 44.9177C56.93 47.7623 57.8304 51.0792 57.8299 54.4684C57.8299 54.9906 57.6393 55.4913 57.3001 55.8606C56.9609 56.2298 56.5009 56.4372 56.0212 56.4372C55.5415 56.4372 55.0815 56.2298 54.7423 55.8606C54.4031 55.4913 54.2125 54.9906 54.2125 54.4684C54.2122 51.5393 53.3452 48.6882 51.7398 46.3374C50.1344 43.9867 47.876 42.2613 45.2993 41.4169L44.0115 40.9969V36.5974L45.0002 36.0488C46.4659 35.2407 47.6386 33.9185 48.329 32.2957C49.0194 30.6729 49.1872 28.8442 48.8053 27.1048C48.4234 25.3654 47.5142 23.8169 46.2243 22.7092C44.9345 21.6014 43.3393 20.9992 41.6963 20.9997Z" fill="#333333"/>
</g>
<defs>
<clipPath id="clip0_279_1476">
<rect width="57.8782" height="63" fill="white"/>
</clipPath>
</defs>
</svg>
