<?xml version="1.0" encoding="UTF-8"?>
<!DOCTYPE svg PUBLIC "-//W3C//DTD SVG 1.1//EN" "http://www.w3.org/Graphics/SVG/1.1/DTD/svg11.dtd">
<svg xmlns="http://www.w3.org/2000/svg" version="1.1" width="631px" height="163px" style="shape-rendering:geometricPrecision; text-rendering:geometricPrecision; image-rendering:optimizeQuality; fill-rule:evenodd; clip-rule:evenodd" xmlns:xlink="http://www.w3.org/1999/xlink">
<g><path style="opacity:1" fill="#0367A6" d="M 59.5,25.5 C 62.3198,25.2475 64.9865,25.7475 67.5,27C 82.7469,36.2088 98.2469,45.0422 114,53.5C 115.021,73.8273 115.355,94.1607 115,114.5C 98.1788,125.158 81.0121,135.158 63.5,144.5C 49.5443,137.522 35.8776,130.022 22.5,122C 18.9218,119.626 15.4218,117.126 12,114.5C 11.7808,96.1527 11.2808,77.8194 10.5,59.5C 10.5901,57.7722 10.9234,56.1056 11.5,54.5C 27.8959,45.3103 43.8959,35.6436 59.5,25.5 Z M 61.5,31.5 C 76.9709,39.4005 91.9709,48.0671 106.5,57.5C 93.0299,65.7387 79.3632,73.7387 65.5,81.5C 64.8281,84.8967 63.9948,88.2301 63,91.5C 62.8328,106.511 62.3328,121.511 61.5,136.5C 46.8767,128.376 32.3767,120.042 18,111.5C 16.741,93.4982 16.5743,75.4982 17.5,57.5C 32.2299,48.807 46.8965,40.1404 61.5,31.5 Z"/></g>
<g><path style="opacity:1" fill="#0367A6" d="M 496.5,52.5 C 506.543,51.1661 515.876,52.8328 524.5,57.5C 531.82,69.0612 533.32,81.3946 529,94.5C 526.744,99.7575 522.91,103.257 517.5,105C 492.679,110.678 481.346,100.845 483.5,75.5C 483.072,68.7071 484.739,62.5404 488.5,57C 491.448,55.7627 494.115,54.2627 496.5,52.5 Z M 509.5,66.5 C 510.5,66.5 511.5,66.5 512.5,66.5C 512.941,73.5071 513.108,80.5071 513,87.5C 509.79,91.5878 506.123,92.2544 502,89.5C 500.449,86.1319 499.283,82.6319 498.5,79C 499.89,76.2941 501.056,73.4608 502,70.5C 504.519,69.0916 507.019,67.7583 509.5,66.5 Z"/></g>
<g><path style="opacity:1" fill="#0367A6" d="M 407.5,53.5 C 417.206,53.2452 426.873,53.5785 436.5,54.5C 436.8,59.0986 436.467,63.5986 435.5,68C 429.473,68.4267 423.473,69.0934 417.5,70C 422.828,71.3326 428.162,72.6659 433.5,74C 436,75.1667 437.833,77 439,79.5C 444.052,95.2525 438.552,104.419 422.5,107C 415.452,107.73 408.452,107.397 401.5,106C 400.667,105.167 399.833,104.333 399,103.5C 398.585,99.152 398.751,94.8187 399.5,90.5C 406.956,92.3066 414.622,92.9733 422.5,92.5C 422.5,91.5 422.5,90.5 422.5,89.5C 402.653,90.1086 394.82,80.7753 399,61.5C 401.15,57.842 403.983,55.1753 407.5,53.5 Z"/></g>
<g><path style="opacity:1" fill="#0367A6" d="M 536.5,53.5 C 547.172,53.3335 557.839,53.5002 568.5,54C 572.68,55.0021 575.514,57.5021 577,61.5C 577.667,68.8333 577.667,76.1667 577,83.5C 575.702,85.2652 574.536,87.0986 573.5,89C 576.296,93.4244 578.962,97.9244 581.5,102.5C 581.291,103.086 580.957,103.586 580.5,104C 574.472,104.83 568.472,104.664 562.5,103.5C 559.536,99.1302 557.036,94.4636 555,89.5C 554.779,94.22 554.279,98.8867 553.5,103.5C 547.872,104.495 542.206,104.829 536.5,104.5C 535.853,87.427 535.853,70.427 536.5,53.5 Z M 553.5,67.5 C 558.355,66.964 560.521,68.964 560,73.5C 553.423,76.0878 551.256,74.0878 553.5,67.5 Z"/></g>
<g><path style="opacity:1" fill="#0367A6" d="M 584.5,53.5 C 597.167,53.5 609.833,53.5 622.5,53.5C 622.778,58.339 622.112,63.0056 620.5,67.5C 613.986,67.0446 607.653,67.5446 601.5,69C 606.964,72.2173 612.964,73.3839 619.5,72.5C 619.8,77.0986 619.467,81.5986 618.5,86C 613.141,85.6809 607.808,85.8475 602.5,86.5C 602.709,87.086 603.043,87.586 603.5,88C 609.825,88.4995 616.158,88.6662 622.5,88.5C 622.869,91.3189 623.202,94.1523 623.5,97C 623.624,99.59 622.958,101.923 621.5,104C 609.505,104.5 597.505,104.667 585.5,104.5C 585.192,87.4994 584.859,70.4994 584.5,53.5 Z"/></g>
<g><path style="opacity:1" fill="#0367A6" d="M 441.5,54.5 C 455.167,54.5 468.833,54.5 482.5,54.5C 482.852,59.006 482.185,63.3393 480.5,67.5C 477.232,68.487 473.898,68.8204 470.5,68.5C 470.077,71.647 469.744,74.8136 469.5,78C 470.411,86.5026 470.911,95.0026 471,103.5C 468.446,104.771 465.613,105.438 462.5,105.5C 459.579,105.476 456.746,105.143 454,104.5C 453.577,92.4926 453.077,80.4926 452.5,68.5C 448.616,68.5762 444.95,67.9095 441.5,66.5C 440.322,62.4522 440.322,58.4522 441.5,54.5 Z"/></g>
<g><path style="opacity:1" fill="#0367A6" d="M 321.5,55.5 C 326.833,55.5 332.167,55.5 337.5,55.5C 337.258,67.5328 337.758,79.5328 339,91.5C 343.749,92.3052 348.582,92.8052 353.5,93C 354.833,97.3333 354.833,101.667 353.5,106C 342.59,106.82 331.757,106.653 321,105.5C 320.713,91.324 320.213,77.1573 319.5,63C 319.631,60.2228 320.298,57.7228 321.5,55.5 Z"/></g>
<g><path style="opacity:1" fill="#0367A6" d="M 355.5,55.5 C 367.833,55.5 380.167,55.5 392.5,55.5C 392.46,60.1925 392.127,64.8592 391.5,69.5C 386.156,69.334 380.823,69.5006 375.5,70C 374.62,71.3561 374.286,72.8561 374.5,74.5C 379.179,74.3342 383.845,74.5008 388.5,75C 390.72,78.1014 391.053,81.4347 389.5,85C 385.453,86.9959 381.12,88.1625 376.5,88.5C 375.571,89.6888 375.238,91.0222 375.5,92.5C 381.833,92.5 388.167,92.5 394.5,92.5C 394.8,97.0986 394.467,101.599 393.5,106C 381.5,106.667 369.5,106.667 357.5,106C 356.324,89.2466 355.657,72.4133 355.5,55.5 Z"/></g>
<g><path style="opacity:1" fill="#0367A6" d="M 211.5,56.5 C 213.833,56.5 216.167,56.5 218.5,56.5C 216.846,71.6961 216.012,87.0294 216,102.5C 210.424,107.804 203.757,110.137 196,109.5C 188.39,110.518 182.056,108.185 177,102.5C 175.466,87.5282 174.3,72.5282 173.5,57.5C 179.167,57.5 184.833,57.5 190.5,57.5C 190.528,69.8436 190.862,82.1769 191.5,94.5C 194.788,94.927 197.788,94.2603 200.5,92.5C 200.851,80.8677 200.851,69.201 200.5,57.5C 204.371,57.815 208.038,57.4816 211.5,56.5 Z"/></g>
<g><path style="opacity:1" fill="#0367A6" d="M 223.5,56.5 C 237.167,56.5 250.833,56.5 264.5,56.5C 264.666,60.5138 264.499,64.5138 264,68.5C 258.624,76.753 253.124,84.9196 247.5,93C 253.825,93.4995 260.158,93.6662 266.5,93.5C 266.387,98.518 266.053,103.518 265.5,108.5C 251.167,108.5 236.833,108.5 222.5,108.5C 222.334,104.486 222.501,100.486 223,96.5C 228.364,88.2806 233.864,80.114 239.5,72C 234.771,71.7273 230.104,71.0607 225.5,70C 224.139,65.6376 223.472,61.1376 223.5,56.5 Z"/></g>
<g><path style="opacity:1" fill="#0367A6" d="M 272.5,56.5 C 285.833,56.5 299.167,56.5 312.5,56.5C 312.665,60.1817 312.499,63.8484 312,67.5C 306.894,76.2692 301.394,84.7692 295.5,93C 301.825,93.4995 308.158,93.6662 314.5,93.5C 314.689,98.1614 314.022,102.661 312.5,107C 298.559,108.429 284.559,108.929 270.5,108.5C 270.334,104.154 270.501,99.8206 271,95.5C 276.299,88.0137 281.466,80.347 286.5,72.5C 282.015,71.9572 277.681,70.9572 273.5,69.5C 272.11,65.149 271.777,60.8157 272.5,56.5 Z"/></g>
<g><path style="opacity:1" fill="#0367A6" d="M 127.5,57.5 C 137.506,57.3335 147.506,57.5002 157.5,58C 167.525,59.8828 172.191,66.0495 171.5,76.5C 172.351,83.2432 170.351,89.0765 165.5,94C 159.335,95.9843 153.002,97.3176 146.5,98C 145.833,101.667 145.167,105.333 144.5,109C 139.177,109.499 133.844,109.666 128.5,109.5C 128.304,92.1634 127.971,74.8301 127.5,57.5 Z M 144.5,72.5 C 151.17,71.1754 153.836,73.8421 152.5,80.5C 150.167,80.5 147.833,80.5 145.5,80.5C 145.167,77.8333 144.833,75.1667 144.5,72.5 Z"/></g>
</svg>
